# xmcd
#
# Track frame offsets:
#      150
#      14547
#      37112
#      61295
#      83604
#      110647
#      136940
#      163625
# 
# Disc length: 2478 seconds
#
# Revision: 2
# Processed by: cddbd v1.5.2PL0 Copyright (c) Steve Scherf et al.
#
# Submitted via: FreeRIP 1.20
#
DISCID=6409ac08
DTITLE=Junior Kimbrough - Meet Me in the City
DYEAR=1999
DGENRE=blues
TTITLE0=Meet Me in the City
TTITLE1=Done Got Old
TTITLE2=Baby Please Don't Leave Me
TTITLE3=Lonesome Road
TTITLE4=Junior's Place
TTITLE5=I Feel Alright
TTITLE6=All Night Long
TTITLE7=Nobody But You
EXTD=Copyright © 1999, Fat Possum Records, LLC
EXTT0=
EXTT1=
EXTT2=
EXTT3=
EXTT4=
EXTT5=
EXTT6=
EXTT7=
PLAYORDER=
